<svg xmlns="http://www.w3.org/2000/svg" viewBox="0 0 1024 1024" width="1024" height="1024" role="img" aria-label="Yoda app icon">
  <!-- rounded macOS-style tile (824 grid in 1024, transparent corners) -->
  <rect x="100" y="100" width="824" height="824" rx="185" ry="185" fill="#9cb87f"/>

  <!-- Grogu bust, centred in the tile -->
  <g transform="translate(179,122) scale(1.3)">
    <!-- EARS -->
    <g stroke="#2f2a24" stroke-width="7" stroke-linejoin="round" stroke-linecap="round">
      <path d="M170 244 C104 246 58 150 34 160 C26 200 78 252 158 266 Z" fill="#bcd79d"/>
      <path d="M342 244 C408 246 454 150 478 160 C486 200 434 252 354 266 Z" fill="#bcd79d"/>
    </g>
    <path d="M160 242 C116 240 74 176 60 182 C66 210 104 240 152 248 Z" fill="#e7c6b6"/>
    <path d="M352 242 C396 240 438 176 452 182 C446 210 408 240 360 248 Z" fill="#e7c6b6"/>

    <!-- HEAD -->
    <path d="M256 92 C332 92 392 148 392 232 C392 314 332 364 256 364 C180 364 120 314 120 232 C120 148 180 92 256 92 Z"
          fill="#bcd79d" stroke="#2f2a24" stroke-width="7"/>
    <g fill="none" stroke="#8aa86c" stroke-width="5" stroke-linecap="round" opacity="0.85">
      <path d="M212 146 Q256 134 300 146"/>
      <path d="M222 166 Q256 157 290 166"/>
    </g>
    <g fill="#aecb8f" stroke="#2f2a24" stroke-width="5" stroke-linejoin="round">
      <path d="M170 214 Q204 198 238 216 Q204 210 170 214 Z"/>
      <path d="M274 216 Q308 198 342 214 Q308 210 274 216 Z"/>
    </g>

    <!-- EYES -->
    <ellipse cx="204" cy="250" rx="41" ry="46" fill="#1c1813" stroke="#2f2a24" stroke-width="4"/>
    <ellipse cx="308" cy="250" rx="41" ry="46" fill="#1c1813" stroke="#2f2a24" stroke-width="4"/>
    <circle cx="218" cy="233" r="12" fill="#fff"/>
    <circle cx="322" cy="233" r="12" fill="#fff"/>
    <circle cx="193" cy="262" r="5" fill="#fff" opacity="0.65"/>
    <circle cx="297" cy="262" r="5" fill="#fff" opacity="0.65"/>

    <!-- NOSE + MOUTH -->
    <path d="M244 290 Q256 302 268 290" fill="none" stroke="#5f7a48" stroke-width="5" stroke-linecap="round"/>
    <circle cx="249" cy="289" r="3" fill="#3f5230"/>
    <circle cx="263" cy="289" r="3" fill="#3f5230"/>
    <path d="M234 314 Q256 330 278 314" fill="none" stroke="#2f2a24" stroke-width="5" stroke-linecap="round"/>

    <!-- SCARF -->
    <path d="M150 378 C178 344 212 334 256 334 C300 334 334 344 362 378 C372 398 358 416 330 414 C300 378 212 378 182 414 C154 416 140 398 150 378 Z"
          fill="#ded2b4" stroke="#2f2a24" stroke-width="7" stroke-linejoin="round"/>

    <!-- ROBE -->
    <path d="M150 470 C150 414 198 392 256 392 C314 392 362 414 362 470 L362 520 L150 520 Z"
          fill="#8a6f4e" stroke="#2f2a24" stroke-width="7" stroke-linejoin="round"/>
    <path d="M256 396 L200 436 L218 520 L256 472 Z" fill="#7a6042" stroke="#2f2a24" stroke-width="5" stroke-linejoin="round"/>
    <g fill="none" stroke="#5f4b33" stroke-width="3" stroke-linecap="round">
      <path d="M300 440 L312 512"/>
      <path d="M322 442 L336 510"/>
    </g>
    <g fill="#b6d196" stroke="#2f2a24" stroke-width="5" stroke-linejoin="round">
      <path d="M196 452 q-16 6 -18 26 q14 -4 22 -10 Z"/>
      <path d="M316 452 q16 6 18 26 q-14 -4 -22 -10 Z"/>
    </g>
  </g>
</svg>
